<mxfile host="app.diagrams.net" modified="2024-05-22T18:40:23.813Z" agent="Mozilla/5.0 (Windows NT 10.0; Win64; x64) AppleWebKit/537.36 (KHTML, like Gecko) Chrome/124.0.0.0 Safari/537.36" version="24.4.6" etag="e37nEXrF1b3geYfZ1XI3" type="github">
  <diagram name="Page-1" id="NFE9tewttob0PDw_mWEZ">
    <mxGraphModel>
      <root>
        <mxCell id="0" />
        <mxCell id="1" parent="0" />
      </root>
    </mxGraphModel>
  </diagram>
</mxfile>
